<svg id="Layer_1" data-name="Layer 1" xmlns="http://www.w3.org/2000/svg" viewBox="0 0 512 512"><defs><style>.cls-1{fill:#b89bc9;stroke:#231f20;stroke-miterlimit:10;}.cls-2{fill:#010101;}</style></defs><title>testAdminIcon</title><rect class="cls-1" width="512" height="512"/><ellipse class="cls-2" cx="227.48" cy="123.73" rx="174.68" ry="77.75"/><path class="cls-2" d="M268,409.31A32.24,32.24,0,0,1,244.25,384c-5.53.26-11.11.39-16.77.39C131,384.38,52.8,349.61,52.8,306.63v59.45c0,43,78.21,77.74,174.68,77.74a382.13,382.13,0,0,0,40.26-2.17A32.11,32.11,0,0,1,268,409.31Z"/><path class="cls-2" d="M227.48,363.06c5.45,0,10.81-.13,16.18-.34v-8.94a32.26,32.26,0,0,1,24.46-31.32,32.32,32.32,0,0,1-4.21-20.55c-11.74,1.1-23.91,1.7-36.38,1.7C131,303.61,52.8,268.84,52.8,225.86v59.45C52.8,328.25,131,363.06,227.48,363.06Z"/><path class="cls-2" d="M227.48,282.29a380.42,380.42,0,0,0,49.67-3.23L290.21,266a32.29,32.29,0,0,1,39.15-5,32.26,32.26,0,0,1,31.23-24.09h24.22c.42,0,.85.09,1.27.13,10.22-9.87,16.05-20.85,16.05-32.42V145.14c0,42.93-78.22,77.74-174.69,77.74S52.8,188,52.8,145.05V204.5C52.8,247.48,131,282.29,227.48,282.29Z"/><path class="cls-2" d="M469.83,378V353.78L441,349.06a70.41,70.41,0,0,0-7.92-19.15l16.81-24L432.72,288.8l-23.66,17a69.15,69.15,0,0,0-19.23-8l-5-28.68H360.59l-4.68,28.6a69.2,69.2,0,0,0-19.27,7.91L313.06,288.8,295.91,306l16.6,23.7A69,69,0,0,0,304.46,349L276,353.74V378l28.46,5a68.76,68.76,0,0,0,8.05,19.36L295.7,425.82,312.85,443l23.74-16.64a70.2,70.2,0,0,0,19.28,8l4.77,28.6h24.21L390,434.21a69.35,69.35,0,0,0,19.19-8l23.91,16.77,17.11-17.15-17.06-23.7A70.56,70.56,0,0,0,441,382.89Zm-96.94,21.88a33.79,33.79,0,1,1,33.79-33.79A33.79,33.79,0,0,1,372.89,399.87Z"/></svg>