<svg id="Layer_1" data-name="Layer 1" xmlns="http://www.w3.org/2000/svg" viewBox="0 0 512 512"><defs><style>.cls-1{fill:#f69799;stroke:#231f20;stroke-miterlimit:10;}.cls-2{fill:#010101;}</style></defs><title>testAdminIcon</title><rect class="cls-1" width="512" height="512"/><path class="cls-2" d="M64.93,278.19H444.19A14.21,14.21,0,0,0,458.39,264V63.13a14.21,14.21,0,0,0-14.2-14.21H64.93a14.21,14.21,0,0,0-14.2,14.21V264A14.21,14.21,0,0,0,64.93,278.19ZM79.14,77.33H430V249.77H79.14Z"/><path class="cls-2" d="M254.56,82.4a81.16,81.16,0,1,0,81.13,81.15A81.23,81.23,0,0,0,254.56,82.4Zm0,133.89a52.74,52.74,0,1,1,52.72-52.74A52.79,52.79,0,0,1,254.56,216.29Z"/><path class="cls-2" d="M273.46,158.11,242.36,139a6.39,6.39,0,0,0-9.74,5.44v38.32a6.39,6.39,0,0,0,9.74,5.44L273.46,169a6.39,6.39,0,0,0,0-10.88Z"/><path class="cls-2" d="M300.32,387.63a58.83,58.83,0,1,0-91.52,0A69.59,69.59,0,0,0,185,440a14.21,14.21,0,0,0,14.21,14.2H309.89a14.2,14.2,0,0,0,14.2-14.2A69.61,69.61,0,0,0,300.32,387.63Zm-45.75-67.34a30.43,30.43,0,1,1-30.42,30.42A30.45,30.45,0,0,1,254.57,320.29ZM216,425.77a41.17,41.17,0,0,1,16.55-20.51,58.71,58.71,0,0,0,44.06,0,41.17,41.17,0,0,1,16.55,20.51Z"/><path class="cls-2" d="M444.88,387.63a58.83,58.83,0,1,0-91.51,0A69.56,69.56,0,0,0,329.59,440a14.21,14.21,0,0,0,14.21,14.2H454.45A14.21,14.21,0,0,0,468.66,440,69.62,69.62,0,0,0,444.88,387.63Zm-45.76-67.34a30.43,30.43,0,1,1-30.41,30.42A30.45,30.45,0,0,1,399.12,320.29ZM360.54,425.77a41.17,41.17,0,0,1,16.55-20.51,58.71,58.71,0,0,0,44.06,0,41.19,41.19,0,0,1,16.56,20.51Z"/><path class="cls-2" d="M154.86,387.63a58.83,58.83,0,1,0-91.51,0A69.62,69.62,0,0,0,39.57,440a14.21,14.21,0,0,0,14.21,14.21H164.43A14.21,14.21,0,0,0,178.64,440,69.62,69.62,0,0,0,154.86,387.63Zm-45.75-67.34a30.43,30.43,0,1,1-30.42,30.42A30.45,30.45,0,0,1,109.11,320.29ZM70.52,425.77a41.17,41.17,0,0,1,16.55-20.51,58.73,58.73,0,0,0,44.07,0,41.23,41.23,0,0,1,16.55,20.51Z"/></svg>