<svg id="Layer_1" data-name="Layer 1" xmlns="http://www.w3.org/2000/svg" viewBox="0 0 512 512"><defs><style>.cls-1{fill:#9fc9eb;stroke:#231f20;stroke-miterlimit:10;}.cls-2{fill:#231f20;}</style></defs><title>testAdminIcon</title><rect class="cls-1" width="512" height="512"/><path class="cls-2" d="M37.66,161.83H139.77V207.3H93v19.22h46v43.13H93v20h48.58v45.47H37.66Zm84.7,152.51v-6.23h-52v-56.9h49.37V245H70.4V188.85h52v-6.23H63.65V314.34Z"/><path class="cls-2" d="M180,207.3h-32V161.83H269.16V207.3h-32V335.13H180Zm32,107V188.85h37.15v-6.23H168.09v6.23h37.15V314.34Z"/><path class="cls-2" d="M274.35,248.61q0-20.79,7.28-37.54a87.36,87.36,0,0,1,19.74-28.71A86.1,86.1,0,0,1,330.47,164a98.07,98.07,0,0,1,35.34-6.37,110.59,110.59,0,0,1,26.37,2.86,124.61,124.61,0,0,1,19.87,6.5,92.76,92.76,0,0,1,16.63,9.09L401.4,224.19a92.27,92.27,0,0,0-9.09-6,89.35,89.35,0,0,0-10.52-4,46,46,0,0,0-13.9-1.94,37.67,37.67,0,0,0-14.81,2.85,38.05,38.05,0,0,0-11.83,7.8,35.7,35.7,0,0,0-7.92,11.56,35.31,35.31,0,0,0-2.86,14.16,34.06,34.06,0,0,0,3,14.16,36.43,36.43,0,0,0,8.18,11.56,39,39,0,0,0,12.22,7.8A40.29,40.29,0,0,0,369.18,285,48.7,48.7,0,0,0,384,282.91a54.84,54.84,0,0,0,10.92-4.68,40.28,40.28,0,0,0,9.09-6.76l27.28,48.07a77.12,77.12,0,0,1-16.63,10.13,140.69,140.69,0,0,1-20,6.76,104.16,104.16,0,0,1-26.76,3.12,102.92,102.92,0,0,1-37.42-6.63,88.3,88.3,0,0,1-29.62-18.58,84.13,84.13,0,0,1-19.48-28.71A94.88,94.88,0,0,1,274.35,248.61Zm32.74,0a63.31,63.31,0,0,1,4.29-23.38,55.34,55.34,0,0,1,31-31.7,64,64,0,0,1,24.95-4.68,73,73,0,0,1,12.08.91,54.25,54.25,0,0,1,9,2.21,34.51,34.51,0,0,1,7.54,3.12l3.63-6.24q-4.15-1.82-8.83-3.38a100.85,100.85,0,0,0-10.13-2.33,75.15,75.15,0,0,0-13.25-1A69.76,69.76,0,0,0,342,186.77a64.91,64.91,0,0,0-21.3,13.38,65.66,65.66,0,0,0-20.4,48.46,68.23,68.23,0,0,0,5.33,27.54,62,62,0,0,0,14.68,20.91,65.25,65.25,0,0,0,21.82,13.39,75.07,75.07,0,0,0,26.51,4.67,68.85,68.85,0,0,0,14-1.3A85,85,0,0,0,393.35,311a52,52,0,0,0,8.83-4.16l-3.64-6.24a32.8,32.8,0,0,1-7.79,3.9,58.56,58.56,0,0,1-9.35,2.73,61.35,61.35,0,0,1-12.73,1.17,67.37,67.37,0,0,1-25.73-4.68A57.05,57.05,0,0,1,323.59,291a55.56,55.56,0,0,1-12.21-19A63.31,63.31,0,0,1,307.09,248.61Z"/><path class="cls-2" d="M436.48,291.74h55.6v43.39h-55.6Zm40,24.68v-6H452.07v6Z"/></svg>