<svg id="Layer_1" data-name="Layer 1" xmlns="http://www.w3.org/2000/svg" viewBox="0 0 1280.26 728.22"><defs><style>.cls-1,.cls-4{fill:#fd0;}.cls-2{fill:#ffad5f;stroke:#2d2a26;stroke-width:0.55px;}.cls-2,.cls-4{stroke-miterlimit:10;}.cls-3{fill:#231f20;}.cls-4{stroke:#231f20;}.cls-5{fill:#fff200;}</style></defs><title>login-logo</title><path class="cls-1" d="M56,209.48H109.6v19.36h.57c11.22-16.84,27.49-23,47.69-23,15.71,0,32.54,8.14,39.28,22.72,2.24-1.68,13.46-22.72,49.65-22.72,37.32,0,49.94,25.81,49.94,49.38v99.88H241.18V276.25c0-13.75-1.4-26.09-18.23-26.09-14,0-18.8,10.94-18.8,26.09v78.84H148.6V276.25c0-13.75-1.4-26.09-18.24-26.09-14,0-18.79,10.94-18.79,26.09v78.84H56Z"/><path class="cls-1" d="M618,209.48h53.58V228h.56c10.38-14.58,25.25-22.16,47.42-22.16,26.09,0,49.94,16,49.94,49.38v99.88H714V278.77c0-16.83-2-28.61-18.24-28.61-9.54,0-22.16,4.76-22.16,28v76.88H618Z"/><path class="cls-1" d="M779.87,154.77h55.55v96.79l35.35-42.08h62.84l-51.9,55,60,90.63H875l-29.74-52.75L835.42,313v42.09H779.87Z"/><path class="cls-1" d="M976,294.76c1.41,16.56,10.95,28.34,28.34,28.34,9,0,18.8-3.36,23.29-10.38h51.9c-11.22,31.42-41.8,46-74.91,46-46.57,0-81.64-27.49-81.64-76,0-42.36,30.86-76.87,76.87-76.87,57.79,0,82.76,32.26,82.76,88.93Zm53.31-28.89c0-13.47-10.1-24.41-24.41-24.41-16.55,0-26.09,8.7-28.62,24.41Z"/><path class="cls-1" d="M1181.61,343.86c-4.49,12.9-9.53,29.46-18.23,40.4-14.59,18.24-37,18-58.64,18H1079.5V357.89h12.9c5.61,0,12.91.56,16.83-1.4,3.37-1.69,5.33-4.49,5.33-10.94,0-7-21.32-60.6-24.41-69l-24.68-67h59.47l23.29,83.6h.56l23.57-83.6h57.51Z"/><path class="cls-1" d="M56.28,397.3l53.09-.07,0,19.19h.55c11.1-16.68,27.22-22.82,47.23-22.85,15.56,0,32.25,8,38.93,22.47,2.22-1.66,13.32-22.52,49.17-22.57,37,0,49.51,25.51,49.54,48.86l.11,98.95-55,.06-.09-78.1c0-13.62-1.42-25.84-18.1-25.82-13.9,0-18.61,10.86-18.59,25.86l.09,78.11-55,.06-.09-78.1c0-13.62-1.42-25.84-18.1-25.83-13.9,0-18.61,10.87-18.59,25.87l.09,78.11-55,.06Z"/><path class="cls-1" d="M376.1,544.78c-54.2.07-78.7-35.76-78.75-75.78s24.37-75.63,78.57-75.69,78.7,35.48,78.74,75.5S430.3,544.72,376.1,544.78ZM376,433.33c-20.84,0-23.6,20.32-23.58,35.61s2.83,35.85,23.67,35.82,23.6-20.6,23.59-35.88S396.81,433.3,376,433.33Z"/><path class="cls-1" d="M457.64,396.82l53.09-.06,0,18.34h.56c10.26-14.46,25-22,46.94-22,25.85,0,49.49,15.78,49.53,48.86l.12,98.94-55,.07-.08-75.6c0-16.68-2-28.35-18.11-28.33-9.45,0-22,4.75-21.93,27.82l.1,76.15-55,.07Z"/><path class="cls-1" d="M618,342.43l55-.06.11,95.88,35-41.73,62.26-.08L719,451l59.58,89.7-66.15.08-29.52-52.22-9.72,10.57.05,41.7-55,.06Z"/><path class="cls-1" d="M812.41,480.89c1.41,16.4,10.87,28.06,28.1,28,8.9,0,18.62-3.36,23.06-10.31l51.42-.06c-11.08,31.14-41.36,45.63-74.16,45.66-46.14.06-80.91-27.14-81-75.22-.05-42,30.48-76.19,76.06-76.25,57.26-.06,82,31.87,82.1,88Zm52.77-28.69c0-13.34-10-24.17-24.21-24.15-16.39,0-25.84,8.64-28.32,24.21Z"/><path class="cls-1" d="M1016.2,529.28c-4.43,12.8-9.41,29.2-18,40.05-14.44,18.09-36.67,17.83-58.08,17.86l-25,0,0-43.91,12.78,0c5.56,0,12.79.54,16.68-1.41,3.33-1.67,5.27-4.46,5.26-10.85,0-6.94-21.19-60-24.26-68.34L901,396.29l58.92-.07L983.06,479h.56l23.25-82.86,57-.07Z"/><path class="cls-2" d="M418.11,281.63c0,30.54-22.41,55.3-50.05,55.3S318,312.17,318,281.63s22.41-55.3,50.05-55.3S418.11,251.09,418.11,281.63Z"/><path class="cls-3" d="M368.06,341.75c-30.26,0-54.87-27-54.87-60.12s24.61-60.12,54.87-60.12,54.87,27,54.87,60.12S398.32,341.75,368.06,341.75Zm0-110.6c-24.93,0-45.22,22.65-45.22,50.48s20.29,50.47,45.22,50.47,45.22-22.64,45.22-50.47S393,231.15,368.06,231.15Z"/><path class="cls-3" d="M403.88,281.63c0,21.86-16,39.58-35.82,39.58s-35.82-17.72-35.82-39.58,16-39.58,35.82-39.58S403.88,259.77,403.88,281.63Z"/><path class="cls-2" d="M597.25,281.63c0,30.54-22.41,55.3-50,55.3s-50.05-24.76-50.05-55.3,22.41-55.3,50.05-55.3S597.25,251.09,597.25,281.63Z"/><path class="cls-3" d="M547.2,341.75c-30.26,0-54.87-27-54.87-60.12s24.61-60.12,54.87-60.12,54.87,27,54.87,60.12S577.46,341.75,547.2,341.75Zm0-110.6c-24.94,0-45.22,22.65-45.22,50.48s20.28,50.47,45.22,50.47,45.22-22.64,45.22-50.47S572.14,231.15,547.2,231.15Z"/><ellipse class="cls-3" cx="547.2" cy="281.63" rx="35.82" ry="39.58"/><path class="cls-4" d="M496.06,180.7c-1.56-20.64-18.51-29.43-18.51-29.43a38.86,38.86,0,0,1-10.72,22.79c.68-39.37-29.62-43-29.62-43,20.6,18.64,2.2,44.4,2.2,44.4s-4.5-22.27-21.45-15.9c0,0,7.5,8,7.68,19.31a114.48,114.48,0,1,0,70.42,1.87Z"/><path class="cls-3" d="M458,408A119.44,119.44,0,0,1,338.65,288.68a118.22,118.22,0,0,1,24.26-72.11,120.33,120.33,0,0,1,57.56-41.17,27.68,27.68,0,0,0-6-12.57l-5-5.27,6.78-2.55a21.27,21.27,0,0,1,7.5-1.46c7.67,0,12.92,4.76,16.22,10.23,2.92-7.92,4.47-19.7-6-29.19L422.72,124.4l15.08,1.83A38.64,38.64,0,0,1,455.24,134c5.86,4.57,12.53,12.52,15.21,25.89a31.64,31.64,0,0,0,2.3-9.06l.7-7.09,6.32,3.28c.75.39,17.66,9.39,20.75,30.21A119.32,119.32,0,0,1,458,408ZM426.58,163.77a34.1,34.1,0,0,1,3.88,15l.07,3.67-3.53,1a109.66,109.66,0,1,0,67.46,1.79l-3-1.05-.24-3.13a32.14,32.14,0,0,0-10.46-21.48,43.74,43.74,0,0,1-10.67,18l-8.32,7.77L462,174c.29-16.8-5.53-26.27-11.68-31.57a35.54,35.54,0,0,1,.42,18.88,52.24,52.24,0,0,1-7.4,16.93l-6.45,9-2.2-10.89C434.66,176.27,432.51,166.3,426.58,163.77Z"/><path class="cls-2" d="M536.2,284.34c9.06-5.55,16.15-18.4,16.15-18.4s-15.45,1.22-19.28-2.83c4.91-1.06,9.49-6.15,10.13-12.81,0,0-7.71,5.06-14.51,3.84-12.55-20.56-39.5-34.78-70.73-34.78-43.22,0-78.25,27.22-78.25,60.81v39.45c0,33.59,35,60.81,78.25,60.81s78.24-27.22,78.24-60.81V297.83c7.7-2.81,11.11-15.71,11.11-15.71S541.09,286.32,536.2,284.34Z"/><path class="cls-3" d="M537.8,287.08c7.29-4.65,13.11-12,17.28-19.54,1.09-2-.24-5-2.73-4.77-2.3.18-4.61.2-6.92.15-2.89-.06-7.85.1-10.12-2.05-.46,1.76-.92,3.53-1.39,5.29,7.37-1.88,11.55-8.68,12.44-15.86.3-2.39-2.91-3.93-4.76-2.73-3.41,2.2-8,4.09-12.07,3.52l1.89,1.45c-30.14-48.62-115.87-48.74-146.54-.62a54,54,0,0,0-8.33,29.17V305.5c0,7.1-.47,14.44.56,21.49,1.77,12.25,8,23.22,16.62,32,20.36,20.75,51.84,27.46,79.83,23.43,26.09-3.75,52.31-19,62.36-44.31,5-12.59,3.45-27,3.45-40.26-.77,1-1.55,2-2.33,3.05,7.23-2.92,11.38-10.7,13.32-17.92.7-2.57-2.26-5.15-4.64-3.58s-5.69,2.91-8.68,1.91c-3.88-1.3-5.53,4.82-1.68,6.11,4.52,1.51,9.68,0,13.55-2.55l-4.65-3.57c-1.28,4.74-4,11.52-8.9,13.5a3.25,3.25,0,0,0-2.32,3.05v21.28a48.84,48.84,0,0,1-10.82,30.33c-17.93,22.7-49.59,30.45-77.23,27-25.56-3.19-53-18.64-60.47-44.79-2.07-7.26-1.64-14.8-1.64-22.25V282.93c0-9.25,1.73-17.81,6.34-25.94,6.38-11.29,16.89-19.66,28.34-25.41,26.87-13.47,61.54-12,87.19,3.54a64.3,64.3,0,0,1,19.52,18c1.3,1.86,2,3.82,4.47,4.17a20,20,0,0,0,7-.44,28.33,28.33,0,0,0,9-3.84L540,250.3c-.55,4.41-3.36,8.62-7.8,9.76a3.19,3.19,0,0,0-1.39,5.29c5.12,4.88,14.95,4.26,21.51,3.76l-2.73-4.77c-3.64,6.55-8.64,13.21-15,17.27C531.17,283.79,534.35,289.28,537.8,287.08Z"/><path class="cls-3" d="M455.18,300.85v39.42l1.57-2.74c-6.1,3.85-13.42,6.07-20.41,7.52-17.41,3.6-35.19-.18-50.4-9.14-3.52-2.08-6.71,3.4-3.19,5.47,22.77,13.41,50.77,15.14,74.5,3.12,1.78-.91,4.26-1.91,4.26-4.28V300.85c0-4.08-6.33-4.08-6.33,0Z"/><path class="cls-3" d="M455.18,300.85v33.59c0,2.05-.44,4.65.11,6.67s3.4,3,5,3.83a76.93,76.93,0,0,0,51.92,5.54,81.1,81.1,0,0,0,21.69-9.1c3.51-2.07.33-7.55-3.19-5.47-15.1,8.89-32.41,12.52-49.71,9.27-7.21-1.35-14.83-3.69-21.1-7.65.53.91,1.05,1.83,1.57,2.74V300.85c0-4.08-6.33-4.08-6.33,0Z"/><path class="cls-3" d="M473.63,297.07a8.08,8.08,0,0,1,0,11.42l-9.19,9.19a8.06,8.06,0,0,1-11.42,0l-9.2-9.19a8.08,8.08,0,0,1,0-11.42Z"/><path class="cls-3" d="M458.73,324.27a12.19,12.19,0,0,1-8.7-3.61l-9.19-9.19a12.3,12.3,0,0,1,0-17.39l1.23-1.23h33.31l1.24,1.23a12.32,12.32,0,0,1,0,17.39l-9.2,9.19A12.19,12.19,0,0,1,458.73,324.27Zm-12.75-23a3.85,3.85,0,0,0,.83,4.21l9.19,9.2a3.83,3.83,0,0,0,2.73,1.13,3.79,3.79,0,0,0,2.72-1.13l9.2-9.2a3.87,3.87,0,0,0,.83-4.21Z"/><path class="cls-2" d="M402.76,276.71a18.07,18.07,0,0,1,36.14,0"/><path class="cls-3" d="M407.28,276.75a13.72,13.72,0,0,1,13.52-13.58c7.51-.17,13.41,6.23,13.57,13.51.13,5.83,9.18,5.89,9.05.07a22.93,22.93,0,0,0-22.56-22.63c-12.48-.28-22.35,10.48-22.62,22.56-.13,5.85,8.92,5.88,9,.07Z"/><path class="cls-2" d="M480.08,276.71a18.07,18.07,0,1,1,36.13,0"/><path class="cls-3" d="M484.6,276.75a13.72,13.72,0,0,1,13.52-13.58c7.51-.17,13.41,6.23,13.57,13.51.13,5.83,9.18,5.89,9.05.07a22.94,22.94,0,0,0-22.56-22.63c-12.48-.28-22.35,10.48-22.62,22.56-.13,5.85,8.91,5.88,9,.07Z"/><path class="cls-5" d="M437.19,192.56a14.94,14.94,0,0,0-14.93,14.92h0a3.89,3.89,0,0,0,7.77,0,7.16,7.16,0,0,1,14.32,0c0,4-3.2,9.61-7.16,9.61H360.71s-3.94.22-3.94,4,3.94,3.75,3.94,3.75h76.48c8.25,0,14.94-9.12,14.94-17.37A14.94,14.94,0,0,0,437.19,192.56Z"/><path class="cls-3" d="M360.7,227.57c-2.67,0-6.64-1.72-6.64-6.46a6.71,6.71,0,0,1,6.49-6.73h76.64c1.92,0,4.45-3.93,4.45-6.89a4.45,4.45,0,1,0-8.89,0,6.6,6.6,0,0,1-13.2.11v-.22h0a17.65,17.65,0,0,1,35.29.12c0,9.48-7.55,20.08-17.65,20.08Zm.12-7.76c-1.33.14-1.33,1-1.33,1.3s0,1,1.23,1h76.47c6.77,0,12.22-8,12.22-14.66a12.22,12.22,0,0,0-24.43,0v0a1.17,1.17,0,0,0,2.34,0,9.88,9.88,0,1,1,19.75,0c0,4.9-3.94,12.32-9.88,12.32Z"/><path class="cls-5" d="M478,192.56A14.93,14.93,0,0,1,493,207.48h0a3.89,3.89,0,0,1-7.77,0,7.16,7.16,0,0,0-14.32,0c0,4,3.2,9.61,7.16,9.61h76.49s3.93.22,3.93,4-3.93,3.75-3.93,3.75H478c-8.25,0-14.93-9.12-14.93-17.37A14.93,14.93,0,0,1,478,192.56Z"/><path class="cls-3" d="M554.52,227.57H478c-10.1,0-17.64-10.6-17.64-20.08a17.64,17.64,0,0,1,35.28-.12v.23a6.6,6.6,0,0,1-13.19-.11,4.45,4.45,0,0,0-8.9,0c0,3,2.54,6.89,4.45,6.89h76.64a6.72,6.72,0,0,1,6.5,6.73C561.17,225.85,557.19,227.57,554.52,227.57ZM478,195.28a12.23,12.23,0,0,0-12.22,12.21c0,6.64,5.45,14.66,12.22,14.66h76.48c1.23,0,1.23-.66,1.23-1a1.26,1.26,0,0,0-1.32-1.3H478c-5.94,0-9.88-7.42-9.88-12.32a9.88,9.88,0,0,1,19.76,0,1.17,1.17,0,0,0,1.17,1.17,1.18,1.18,0,0,0,1.17-1.17h0A12.23,12.23,0,0,0,478,195.28Z"/></svg>