<svg id="Layer_1" data-name="Layer 1" xmlns="http://www.w3.org/2000/svg" viewBox="0 0 512 512"><defs><style>.cls-1{fill:#fdcc9a;stroke:#231f20;stroke-miterlimit:10;}.cls-2{fill:#010101;}</style></defs><title>testAdminIcon</title><rect class="cls-1" width="512" height="512"/><path class="cls-2" d="M183.61,359.36a20.15,20.15,0,1,0,20.15-20.14,20.13,20.13,0,0,0-20.15,20.14Z"/><path class="cls-2" d="M282,359.36a20.15,20.15,0,1,0,20.15-20.14A20.13,20.13,0,0,0,282,359.36Z"/><path class="cls-2" d="M454.81,129.16,253,37.81,51.19,129.16,253,220.5l178.39-81.1c-.85,39.18-6,82.74-9,86.69h25.38c-3.11-4-8.48-49.86-9.1-90Z"/><path class="cls-2" d="M253,240,128.51,181.64A171.6,171.6,0,0,0,80.82,300.4c0,94.94,77.24,172.18,172.18,172.18S425.18,395.34,425.18,300.4a171.59,171.59,0,0,0-49.07-120.14Zm145.34,59.45c0,.31,0,.66,0,1,0,80.17-65.21,145.34-145.34,145.34-78.48,0-142.58-62.51-145.2-140.37.53.8,1.11,1.64,1.69,2.4,25.86,33.85,89,29.05,141.16-10.7a177.73,177.73,0,0,0,20.14-17.92c-.84,28.13-5.72,46.05-23.33,60.07,23.87-10.6,37.93-31.94,46.27-53.1,34.78,31.67,79.06,39.75,100.84,17.7A46.21,46.21,0,0,0,398.34,299.43Z"/></svg>