<svg id="Layer_1" data-name="Layer 1" xmlns="http://www.w3.org/2000/svg" viewBox="0 0 512 512"><defs><style>.cls-1{fill:#fbf49c;stroke:#231f20;stroke-miterlimit:10;}.cls-2{fill:#010101;}</style></defs><title>testAdminIcon</title><rect class="cls-1" width="512" height="512"/><circle class="cls-2" cx="125.1" cy="96.85" r="45.47"/><path class="cls-2" d="M380.73,51.39a45.47,45.47,0,1,1-45.47,45.46A45.46,45.46,0,0,1,380.73,51.39Z"/><path class="cls-2" d="M414.85,137.57a49.84,49.84,0,0,1-68.24,0,58.39,58.39,0,0,0-40.73,39,297.05,297.05,0,0,0-105.93,0,58.41,58.41,0,0,0-40.72-39,49.85,49.85,0,0,1-68.25,0A58.26,58.26,0,0,0,47.6,193.79V241l.12.73,3.25,1a296.53,296.53,0,0,0,29,7.47,67.5,67.5,0,0,0-6.58,28.65c0,42.85,42.47,79.88,103.59,97a57.86,57.86,0,0,0-3.51,19.82v47.19l.13.74,3.25,1c30.63,9.56,57.24,12.76,79.15,12.76,42.79,0,67.59-12.2,69.12-13l3-1.54h.32V395.63a57.86,57.86,0,0,0-3.16-18.89c63-16.64,107-54.24,107-97.89a67,67,0,0,0-6-27.35c17.58-3.63,27.48-8.5,28.43-9l3.05-1.54h.32V193.79A58.25,58.25,0,0,0,414.85,137.57ZM420,278.85c0,38.66-41.18,72-100,86.64a58.42,58.42,0,0,0-34.87-26.08,49.85,49.85,0,0,1-68.25,0,58.44,58.44,0,0,0-34.36,25.24c-57-15.08-96.7-47.86-96.7-85.8a57.36,57.36,0,0,1,6.65-26.37,246,246,0,0,0,37.64,3c42.78,0,67.58-12.2,69.11-13l3-1.54h.33V193.79c0-1.73-.08-3.45-.23-5.13a289.87,289.87,0,0,1,101.08,0c-.15,1.69-.23,3.4-.23,5.13V241l.12.74,3.26,1c30.62,9.56,57.24,12.76,79.14,12.76a207.83,207.83,0,0,0,28.18-1.87A57.17,57.17,0,0,1,420,278.85Z"/><circle class="cls-2" cx="251.02" cy="298.7" r="45.47"/></svg>